<?xml version="1.0" encoding="UTF-8"?>
<svg xmlns="http://www.w3.org/2000/svg" version="1.1" width="300" height="300" viewBox="0 0 300 300"><rect x="0" y="0" width="300" height="300" fill="#ffffff"/><g transform="scale(7.317)"><g transform="translate(0,0)"><path fill-rule="evenodd" d="M9 0L9 1L8 1L8 3L9 3L9 4L8 4L8 8L6 8L6 9L5 9L5 10L3 10L3 11L2 11L2 12L1 12L1 15L0 15L0 16L2 16L2 18L4 18L4 17L7 17L7 18L5 18L5 19L4 19L4 20L3 20L3 21L4 21L4 22L1 22L1 21L0 21L0 22L1 22L1 23L0 23L0 24L1 24L1 23L5 23L5 25L3 25L3 24L2 24L2 28L1 28L1 30L0 30L0 31L1 31L1 30L2 30L2 32L3 32L3 33L4 33L4 32L3 32L3 31L5 31L5 30L6 30L6 31L7 31L7 32L6 32L6 33L8 33L8 35L9 35L9 36L10 36L10 37L8 37L8 38L9 38L9 39L8 39L8 41L11 41L11 40L12 40L12 39L13 39L13 40L14 40L14 39L13 39L13 38L15 38L15 36L16 36L16 35L18 35L18 36L17 36L17 37L16 37L16 38L18 38L18 39L15 39L15 41L22 41L22 40L23 40L23 41L25 41L25 40L27 40L27 39L26 39L26 38L25 38L25 39L24 39L24 38L22 38L22 37L23 37L23 36L22 36L22 34L23 34L23 33L25 33L25 34L26 34L26 33L29 33L29 34L30 34L30 33L31 33L31 34L32 34L32 38L36 38L36 39L35 39L35 40L34 40L34 39L33 39L33 40L32 40L32 39L31 39L31 38L30 38L30 37L31 37L31 35L30 35L30 36L29 36L29 35L27 35L27 36L26 36L26 35L24 35L24 36L25 36L25 37L28 37L28 39L29 39L29 41L31 41L31 40L32 40L32 41L33 41L33 40L34 40L34 41L35 41L35 40L36 40L36 41L37 41L37 40L38 40L38 39L37 39L37 38L36 38L36 37L37 37L37 36L39 36L39 38L41 38L41 37L40 37L40 36L41 36L41 35L40 35L40 36L39 36L39 34L41 34L41 32L40 32L40 31L41 31L41 26L40 26L40 25L39 25L39 23L38 23L38 22L41 22L41 20L40 20L40 19L41 19L41 17L40 17L40 19L39 19L39 16L41 16L41 13L39 13L39 14L38 14L38 15L39 15L39 16L37 16L37 14L36 14L36 12L37 12L37 11L38 11L38 12L41 12L41 11L39 11L39 10L41 10L41 9L40 9L40 8L38 8L38 10L35 10L35 9L37 9L37 8L34 8L34 9L32 9L32 10L31 10L31 9L29 9L29 8L30 8L30 7L31 7L31 6L32 6L32 7L33 7L33 6L32 6L32 5L30 5L30 4L31 4L31 2L29 2L29 1L28 1L28 0L26 0L26 1L25 1L25 0L23 0L23 1L20 1L20 0L18 0L18 1L20 1L20 3L19 3L19 2L17 2L17 1L15 1L15 0L13 0L13 1L15 1L15 2L14 2L14 3L15 3L15 6L14 6L14 7L15 7L15 8L9 8L9 6L10 6L10 7L11 7L11 6L12 6L12 7L13 7L13 6L12 6L12 4L13 4L13 5L14 5L14 4L13 4L13 3L12 3L12 4L11 4L11 3L10 3L10 0ZM11 0L11 2L12 2L12 0ZM30 0L30 1L32 1L32 2L33 2L33 1L32 1L32 0ZM26 1L26 2L25 2L25 4L26 4L26 6L25 6L25 5L22 5L22 4L23 4L23 3L22 3L22 2L21 2L21 5L22 5L22 6L21 6L21 7L20 7L20 6L19 6L19 5L20 5L20 4L19 4L19 3L17 3L17 4L16 4L16 6L15 6L15 7L16 7L16 6L17 6L17 7L18 7L18 6L19 6L19 8L17 8L17 9L16 9L16 8L15 8L15 9L13 9L13 10L12 10L12 9L9 9L9 8L8 8L8 9L9 9L9 10L7 10L7 9L6 9L6 10L5 10L5 11L6 11L6 12L7 12L7 11L10 11L10 10L12 10L12 11L11 11L11 12L10 12L10 13L11 13L11 12L12 12L12 11L14 11L14 10L15 10L15 11L17 11L17 12L16 12L16 13L15 13L15 15L14 15L14 14L13 14L13 13L12 13L12 15L14 15L14 16L13 16L13 17L15 17L15 20L14 20L14 18L13 18L13 20L12 20L12 18L11 18L11 16L10 16L10 15L11 15L11 14L10 14L10 15L8 15L8 16L7 16L7 15L6 15L6 16L7 16L7 17L9 17L9 16L10 16L10 18L11 18L11 19L10 19L10 20L9 20L9 19L8 19L8 20L9 20L9 21L10 21L10 22L11 22L11 23L12 23L12 24L11 24L11 25L12 25L12 24L13 24L13 23L12 23L12 21L13 21L13 22L14 22L14 21L15 21L15 23L14 23L14 25L13 25L13 27L12 27L12 28L10 28L10 27L11 27L11 26L10 26L10 27L9 27L9 23L8 23L8 22L7 22L7 21L6 21L6 20L7 20L7 19L6 19L6 20L4 20L4 21L5 21L5 22L7 22L7 23L6 23L6 24L7 24L7 25L6 25L6 26L5 26L5 28L7 28L7 27L6 27L6 26L8 26L8 28L10 28L10 29L6 29L6 30L8 30L8 31L10 31L10 32L9 32L9 35L11 35L11 37L10 37L10 40L11 40L11 38L13 38L13 36L12 36L12 34L13 34L13 35L14 35L14 34L15 34L15 35L16 35L16 34L15 34L15 33L16 33L16 30L17 30L17 29L16 29L16 28L17 28L17 27L16 27L16 24L19 24L19 25L20 25L20 26L19 26L19 27L18 27L18 28L19 28L19 31L18 31L18 32L17 32L17 33L18 33L18 35L19 35L19 37L18 37L18 38L19 38L19 39L18 39L18 40L19 40L19 39L20 39L20 40L21 40L21 39L22 39L22 38L21 38L21 36L20 36L20 35L19 35L19 34L22 34L22 33L21 33L21 31L22 31L22 32L28 32L28 30L29 30L29 27L30 27L30 32L29 32L29 33L30 33L30 32L31 32L31 33L32 33L32 30L33 30L33 31L34 31L34 32L35 32L35 30L37 30L37 29L39 29L39 30L38 30L38 31L36 31L36 32L37 32L37 34L39 34L39 33L38 33L38 32L39 32L39 30L40 30L40 29L39 29L39 27L40 27L40 26L39 26L39 25L38 25L38 23L37 23L37 24L36 24L36 23L35 23L35 22L32 22L32 20L33 20L33 21L34 21L34 20L35 20L35 21L36 21L36 22L38 22L38 21L37 21L37 19L36 19L36 20L35 20L35 19L34 19L34 18L33 18L33 17L36 17L36 18L37 18L37 16L35 16L35 15L36 15L36 14L35 14L35 13L34 13L34 12L35 12L35 10L32 10L32 12L33 12L33 13L34 13L34 14L35 14L35 15L33 15L33 14L30 14L30 17L29 17L29 15L28 15L28 13L29 13L29 12L30 12L30 13L31 13L31 10L29 10L29 12L27 12L27 11L28 11L28 8L27 8L27 11L26 11L26 12L27 12L27 13L25 13L25 11L24 11L24 10L25 10L25 8L26 8L26 6L27 6L27 7L28 7L28 6L29 6L29 7L30 7L30 5L29 5L29 4L30 4L30 3L29 3L29 2L28 2L28 3L29 3L29 4L28 4L28 6L27 6L27 1ZM32 3L32 4L33 4L33 3ZM10 5L10 6L11 6L11 5ZM22 6L22 7L21 7L21 9L20 9L20 10L19 10L19 9L17 9L17 10L18 10L18 12L17 12L17 13L16 13L16 15L15 15L15 16L16 16L16 15L17 15L17 18L16 18L16 21L17 21L17 22L16 22L16 23L15 23L15 24L16 24L16 23L19 23L19 24L20 24L20 25L21 25L21 26L22 26L22 27L19 27L19 28L20 28L20 31L21 31L21 30L22 30L22 31L23 31L23 30L24 30L24 31L26 31L26 30L24 30L24 29L22 29L22 27L25 27L25 28L26 28L26 29L27 29L27 28L26 28L26 27L25 27L25 26L22 26L22 25L23 25L23 24L25 24L25 25L26 25L26 22L27 22L27 21L26 21L26 20L27 20L27 19L26 19L26 20L24 20L24 21L25 21L25 22L24 22L24 23L21 23L21 22L23 22L23 18L24 18L24 19L25 19L25 18L24 18L24 17L25 17L25 16L26 16L26 14L22 14L22 13L23 13L23 12L24 12L24 11L23 11L23 12L22 12L22 10L23 10L23 9L24 9L24 7L25 7L25 6L24 6L24 7L23 7L23 6ZM22 7L22 8L23 8L23 7ZM0 8L0 9L1 9L1 10L2 10L2 8ZM3 8L3 9L4 9L4 8ZM21 9L21 10L20 10L20 11L19 11L19 13L18 13L18 16L20 16L20 18L19 18L19 17L18 17L18 18L17 18L17 19L20 19L20 20L19 20L19 22L21 22L21 21L20 21L20 20L21 20L21 19L22 19L22 18L21 18L21 15L22 15L22 14L21 14L21 12L20 12L20 11L21 11L21 10L22 10L22 9ZM6 10L6 11L7 11L7 10ZM3 11L3 12L4 12L4 11ZM33 11L33 12L34 12L34 11ZM2 13L2 16L3 16L3 15L5 15L5 14L8 14L8 13L5 13L5 14L3 14L3 13ZM19 13L19 14L20 14L20 13ZM24 15L24 16L22 16L22 17L24 17L24 16L25 16L25 15ZM31 15L31 17L33 17L33 16L32 16L32 15ZM26 17L26 18L27 18L27 17ZM28 17L28 20L31 20L31 19L29 19L29 17ZM20 18L20 19L21 19L21 18ZM1 19L1 20L2 20L2 19ZM33 19L33 20L34 20L34 19ZM38 19L38 20L39 20L39 21L40 21L40 20L39 20L39 19ZM13 20L13 21L14 21L14 20ZM17 20L17 21L18 21L18 20ZM30 21L30 22L29 22L29 23L30 23L30 24L29 24L29 26L28 26L28 25L27 25L27 26L28 26L28 27L29 27L29 26L30 26L30 27L31 27L31 28L32 28L32 29L33 29L33 30L35 30L35 29L36 29L36 28L37 28L37 27L39 27L39 26L37 26L37 27L36 27L36 26L35 26L35 27L36 27L36 28L35 28L35 29L33 29L33 28L34 28L34 26L33 26L33 24L34 24L34 25L35 25L35 23L33 23L33 24L32 24L32 22L31 22L31 21ZM30 22L30 23L31 23L31 22ZM7 23L7 24L8 24L8 23ZM40 23L40 24L41 24L41 23ZM30 24L30 26L31 26L31 27L32 27L32 28L33 28L33 26L31 26L31 25L32 25L32 24ZM0 25L0 27L1 27L1 25ZM14 26L14 27L13 27L13 28L12 28L12 29L10 29L10 31L11 31L11 32L10 32L10 33L15 33L15 31L14 31L14 29L15 29L15 26ZM3 27L3 29L2 29L2 30L3 30L3 29L4 29L4 27ZM13 28L13 29L12 29L12 30L11 30L11 31L12 31L12 32L14 32L14 31L12 31L12 30L13 30L13 29L14 29L14 28ZM0 32L0 33L1 33L1 32ZM18 32L18 33L19 33L19 32ZM33 33L33 36L36 36L36 33ZM34 34L34 35L35 35L35 34ZM28 36L28 37L29 37L29 36ZM19 37L19 38L20 38L20 37ZM29 38L29 39L30 39L30 40L31 40L31 39L30 39L30 38ZM36 39L36 40L37 40L37 39ZM39 39L39 41L40 41L40 39ZM0 0L0 7L7 7L7 0ZM1 1L1 6L6 6L6 1ZM2 2L2 5L5 5L5 2ZM34 0L34 7L41 7L41 0ZM35 1L35 6L40 6L40 1ZM36 2L36 5L39 5L39 2ZM0 34L0 41L7 41L7 34ZM1 35L1 40L6 40L6 35ZM2 36L2 39L5 39L5 36Z" fill="#000000"/></g></g></svg>